<svg version="1.1" xmlns="http://www.w3.org/2000/svg" xmlns:xlink="http://www.w3.org/1999/xlink" width="1695.427734375" height="1722"><defs/><g><g transform="translate(-10,-10) scale(1,1)"><rect fill="#C0C0C0" stroke="none" x="84.3427734375" y="977.5" width="73.314453125" height="57" opacity="0.2"/></g><g transform="translate(-10,-10) scale(1,1)"><rect fill="#ffffff" stroke="none" x="77.3427734375" y="970.5" width="73.314453125" height="57"/></g><g transform="translate(-10,-10) scale(1,1)"><path fill="none" stroke="#000000" d="M 77.3427734375 970.5 L 150.6572265625 970.5 L 150.6572265625 1027.5 L 77.3427734375 1027.5 L 77.3427734375 970.5 Z Z" stroke-miterlimit="10"/></g><g transform="translate(-10,-10) scale(1,1)"><path fill="none" stroke="#000000" d="M 77.3427734375 995.5 L 150.6572265625 995.5" stroke-miterlimit="10"/></g><g transform="translate(-10,-10) scale(1,1)"><path fill="none" stroke="#000000" d="M 77.3427734375 1018.5 L 150.6572265625 1018.5" stroke-miterlimit="10"/></g><g transform="translate(-10,-10) scale(1,1)"><g><path fill="none" stroke="none"/><text fill="#000000" stroke="none" font-family="Arial" font-size="13px" font-style="normal" font-weight="bold" text-decoration="none" x="83.655029296875" y="990">ViewStack</text></g></g><g transform="translate(-10,-10) scale(1,1)"><g><path fill="none" stroke="none"/><text fill="#000000" stroke="none" font-family="Arial" font-size="13px" font-style="normal" font-weight="normal" text-decoration="none" x="82.3427734375" y="1013">+view</text></g></g><g transform="translate(-10,-10) scale(1,1)"><rect fill="#C0C0C0" stroke="none" x="276.70361328125" y="969" width="38.61181640625" height="44" opacity="0.2"/></g><g transform="translate(-10,-10) scale(1,1)"><rect fill="#ffffff" stroke="none" x="269.70361328125" y="962" width="38.61181640625" height="44"/></g><g transform="translate(-10,-10) scale(1,1)"><path fill="none" stroke="#000000" d="M 269.70361328125 962 L 308.3154296875 962 L 308.3154296875 1006 L 269.70361328125 1006 L 269.70361328125 962 Z Z" stroke-miterlimit="10"/></g><g transform="translate(-10,-10) scale(1,1)"><path fill="none" stroke="#000000" d="M 269.70361328125 987 L 308.3154296875 987" stroke-miterlimit="10"/></g><g transform="translate(-10,-10) scale(1,1)"><path fill="none" stroke="#000000" d="M 269.70361328125 997 L 308.3154296875 997" stroke-miterlimit="10"/></g><g transform="translate(-10,-10) scale(1,1)"><g><path fill="none" stroke="none"/><text fill="#000000" stroke="none" font-family="Arial" font-size="13px" font-style="normal" font-weight="bold" text-decoration="none" x="274.9208984375" y="981.5">Main</text></g></g><g transform="translate(-10,-10) scale(1,1)"><path fill="none" stroke="#000000" d="M 269 984 L 224 985 L 152 994" stroke-miterlimit="10"/></g><g transform="translate(-10,-10) scale(1,1)"><path fill="#FFFFFF" stroke="none" d="M 171.12414202367734 983.1249279607803 L 152 994 L 173.21264769414134 999.8329733244924"/></g><g transform="translate(-10,-10) scale(1,1)"><path fill="none" stroke="#000000" d="M 171.12414202367734 983.1249279607803 L 152 994 L 173.21264769414134 999.8329733244924 L 171.12414202367734 983.1249279607803" stroke-miterlimit="10"/></g><g transform="translate(-10,-10) scale(1,1)"><rect fill="#C0C0C0" stroke="none" x="246" y="1060.5" width="100.01904296875" height="44" opacity="0.2"/></g><g transform="translate(-10,-10) scale(1,1)"><rect fill="#ffffff" stroke="none" x="239" y="1053.5" width="100.01904296875" height="44"/></g><g transform="translate(-10,-10) scale(1,1)"><path fill="none" stroke="#000000" d="M 239 1053.5 L 339.01904296875 1053.5 L 339.01904296875 1097.5 L 239 1097.5 L 239 1053.5 Z Z" stroke-miterlimit="10"/></g><g transform="translate(-10,-10) scale(1,1)"><path fill="none" stroke="#000000" d="M 239 1078.5 L 339.01904296875 1078.5" stroke-miterlimit="10"/></g><g transform="translate(-10,-10) scale(1,1)"><path fill="none" stroke="#000000" d="M 239 1088.5 L 339.01904296875 1088.5" stroke-miterlimit="10"/></g><g transform="translate(-10,-10) scale(1,1)"><g><path fill="none" stroke="none"/><text fill="#000000" stroke="none" font-family="Arial" font-size="13px" font-style="normal" font-weight="bold" text-decoration="none" x="246.02001953125" y="1073">ConceptFrame</text></g></g><g transform="translate(-10,-10) scale(1,1)"><path fill="none" stroke="#000000" d="M 251 1053 L 224 1037 L 152 1012" stroke-miterlimit="10"/></g><g transform="translate(-10,-10) scale(1,1)"><path fill="#FFFFFF" stroke="none" d="M 173.96236465016057 1010.7137111625389 L 152 1012 L 168.4392805345536 1026.620193415487"/></g><g transform="translate(-10,-10) scale(1,1)"><path fill="none" stroke="#000000" d="M 173.96236465016057 1010.7137111625389 L 152 1012 L 168.4392805345536 1026.620193415487 L 173.96236465016057 1010.7137111625389" stroke-miterlimit="10"/></g><g transform="translate(-10,-10) scale(1,1)"><path fill="#ffffff" stroke="none" d="M 20 1072 L 197 1072 L 207 1082 L 207 1108 L 20 1108 L 20 1072"/></g><g transform="translate(-10,-10) scale(1,1)"><path fill="none" stroke="#000000" d="M 20 1072 L 197 1072 L 207 1082 L 207 1108 L 20 1108 L 20 1072 L 20 1072" stroke-miterlimit="10"/></g><g transform="translate(-10,-10) scale(1,1)"><path fill="none" stroke="#000000" d="M 197 1072 L 197 1082 L 207 1082 L 197 1072" stroke-miterlimit="10"/></g><g transform="translate(-10,-10) scale(1,1)"><g><path fill="none" stroke="none"/><text fill="#000000" stroke="none" font-family="Arial" font-size="13px" font-style="normal" font-weight="normal" text-decoration="none" x="25" y="1090">概念框和 Main</text><text fill="#000000" stroke="none" font-family="Arial" font-size="13px" font-style="normal" font-weight="normal" text-decoration="none" x="25" y="1103">一样，可以归到多界面基类里</text></g></g><g transform="translate(-10,-10) scale(1,1)"><path fill="none" stroke="#000000" d="M 238 1088 L 224 1091 L 209 1091" stroke-miterlimit="10" stroke-dasharray="3"/></g><g transform="translate(-10,-10) scale(1,1)"><rect fill="#C0C0C0" stroke="none" x="393.275390625" y="1020.5" width="68.236328125" height="44" opacity="0.2"/></g><g transform="translate(-10,-10) scale(1,1)"><rect fill="#ffffff" stroke="none" x="386.275390625" y="1013.5" width="68.236328125" height="44"/></g><g transform="translate(-10,-10) scale(1,1)"><path fill="none" stroke="#000000" d="M 386.275390625 1013.5 L 454.51171875 1013.5 L 454.51171875 1057.5 L 386.275390625 1057.5 L 386.275390625 1013.5 Z Z" stroke-miterlimit="10"/></g><g transform="translate(-10,-10) scale(1,1)"><path fill="none" stroke="#000000" d="M 386.275390625 1038.5 L 454.51171875 1038.5" stroke-miterlimit="10"/></g><g transform="translate(-10,-10) scale(1,1)"><path fill="none" stroke="#000000" d="M 386.275390625 1048.5 L 454.51171875 1048.5" stroke-miterlimit="10"/></g><g transform="translate(-10,-10) scale(1,1)"><g><path fill="none" stroke="none"/><text fill="#000000" stroke="none" font-family="Arial" font-size="13px" font-style="normal" font-weight="bold" text-decoration="none" x="391.8544921875" y="1033">MainVIew</text></g></g><g transform="translate(-10,-10) scale(1,1)"><rect fill="#C0C0C0" stroke="none" x="386.054931640625" y="1150.5" width="82.67724609375" height="44" opacity="0.2"/></g><g transform="translate(-10,-10) scale(1,1)"><rect fill="#ffffff" stroke="none" x="379.054931640625" y="1143.5" width="82.67724609375" height="44"/></g><g transform="translate(-10,-10) scale(1,1)"><path fill="none" stroke="#000000" d="M 379.054931640625 1143.5 L 461.732177734375 1143.5 L 461.732177734375 1187.5 L 379.054931640625 1187.5 L 379.054931640625 1143.5 Z Z" stroke-miterlimit="10"/></g><g transform="translate(-10,-10) scale(1,1)"><path fill="none" stroke="#000000" d="M 379.054931640625 1168.5 L 461.732177734375 1168.5" stroke-miterlimit="10"/></g><g transform="translate(-10,-10) scale(1,1)"><path fill="none" stroke="#000000" d="M 379.054931640625 1178.5 L 461.732177734375 1178.5" stroke-miterlimit="10"/></g><g transform="translate(-10,-10) scale(1,1)"><g><path fill="none" stroke="none"/><text fill="#000000" stroke="none" font-family="Arial" font-size="13px" font-style="normal" font-weight="bold" text-decoration="none" x="386.068603515625" y="1163">SettingView</text></g></g><g transform="translate(-10,-10) scale(1,1)"><rect fill="#C0C0C0" stroke="none" x="390.015869140625" y="945.5" width="74.75537109375" height="44" opacity="0.2"/></g><g transform="translate(-10,-10) scale(1,1)"><rect fill="#ffffff" stroke="none" x="383.015869140625" y="938.5" width="74.75537109375" height="44"/></g><g transform="translate(-10,-10) scale(1,1)"><path fill="none" stroke="#000000" d="M 383.015869140625 938.5 L 457.771240234375 938.5 L 457.771240234375 982.5 L 383.015869140625 982.5 L 383.015869140625 938.5 Z Z" stroke-miterlimit="10"/></g><g transform="translate(-10,-10) scale(1,1)"><path fill="none" stroke="#000000" d="M 383.015869140625 963.5 L 457.771240234375 963.5" stroke-miterlimit="10"/></g><g transform="translate(-10,-10) scale(1,1)"><path fill="none" stroke="#000000" d="M 383.015869140625 973.5 L 457.771240234375 973.5" stroke-miterlimit="10"/></g><g transform="translate(-10,-10) scale(1,1)"><g><path fill="none" stroke="none"/><text fill="#000000" stroke="none" font-family="Arial" font-size="13px" font-style="normal" font-weight="bold" text-decoration="none" x="389.324951171875" y="958">ScoreView</text></g></g><g transform="translate(-10,-10) scale(1,1)"><rect fill="#C0C0C0" stroke="none" x="394.7099609375" y="731.5" width="65.3671875" height="44" opacity="0.2"/></g><g transform="translate(-10,-10) scale(1,1)"><rect fill="#ffffff" stroke="none" x="387.7099609375" y="724.5" width="65.3671875" height="44"/></g><g transform="translate(-10,-10) scale(1,1)"><path fill="none" stroke="#000000" d="M 387.7099609375 724.5 L 453.0771484375 724.5 L 453.0771484375 768.5 L 387.7099609375 768.5 L 387.7099609375 724.5 Z Z" stroke-miterlimit="10"/></g><g transform="translate(-10,-10) scale(1,1)"><path fill="none" stroke="#000000" d="M 387.7099609375 749.5 L 453.0771484375 749.5" stroke-miterlimit="10"/></g><g transform="translate(-10,-10) scale(1,1)"><path fill="none" stroke="#000000" d="M 387.7099609375 759.5 L 453.0771484375 759.5" stroke-miterlimit="10"/></g><g transform="translate(-10,-10) scale(1,1)"><g><path fill="none" stroke="none"/><text fill="#000000" stroke="none" font-family="Arial" font-size="13px" font-style="normal" font-weight="bold" text-decoration="none" x="393.660400390625" y="744">PlayView</text></g></g><g transform="translate(-10,-10) scale(1,1)"><rect fill="#C0C0C0" stroke="none" x="377.01904296875" y="656.5" width="100.7490234375" height="44" opacity="0.2"/></g><g transform="translate(-10,-10) scale(1,1)"><rect fill="#ffffff" stroke="none" x="370.01904296875" y="649.5" width="100.7490234375" height="44"/></g><g transform="translate(-10,-10) scale(1,1)"><path fill="none" stroke="#000000" d="M 370.01904296875 649.5 L 470.76806640625 649.5 L 470.76806640625 693.5 L 370.01904296875 693.5 L 370.01904296875 649.5 Z Z" stroke-miterlimit="10"/></g><g transform="translate(-10,-10) scale(1,1)"><path fill="none" stroke="#000000" d="M 370.01904296875 674.5 L 470.76806640625 674.5" stroke-miterlimit="10"/></g><g transform="translate(-10,-10) scale(1,1)"><path fill="none" stroke="#000000" d="M 370.01904296875 684.5 L 470.76806640625 684.5" stroke-miterlimit="10"/></g><g transform="translate(-10,-10) scale(1,1)"><g><path fill="none" stroke="none"/><text fill="#000000" stroke="none" font-family="Arial" font-size="13px" font-style="normal" font-weight="bold" text-decoration="none" x="377.03271484375" y="669">ChallengeView</text></g></g><g transform="translate(-10,-10) scale(1,1)"><rect fill="#C0C0C0" stroke="none" x="688.76806640625" y="658.75" width="190.0224609375" height="117" opacity="0.2"/></g><g transform="translate(-10,-10) scale(1,1)"><rect fill="#ffffff" stroke="none" x="681.76806640625" y="651.75" width="190.0224609375" height="117"/></g><g transform="translate(-10,-10) scale(1,1)"><path fill="none" stroke="#000000" d="M 681.76806640625 651.75 L 871.79052734375 651.75 L 871.79052734375 768.75 L 681.76806640625 768.75 L 681.76806640625 651.75 Z Z" stroke-miterlimit="10"/></g><g transform="translate(-10,-10) scale(1,1)"><path fill="none" stroke="#000000" d="M 681.76806640625 676.75 L 871.79052734375 676.75" stroke-miterlimit="10"/></g><g transform="translate(-10,-10) scale(1,1)"><path fill="none" stroke="#000000" d="M 681.76806640625 759.75 L 871.79052734375 759.75" stroke-miterlimit="10"/></g><g transform="translate(-10,-10) scale(1,1)"><g><path fill="none" stroke="none"/><text fill="#000000" stroke="none" font-family="Arial" font-size="13px" font-style="normal" font-weight="bold" text-decoration="none" x="759.8056640625" y="671.25">World</text></g></g><g transform="translate(-10,-10) scale(1,1)"><g><path fill="none" stroke="none"/><text fill="#000000" stroke="none" font-family="Arial" font-size="13px" font-style="normal" font-weight="normal" text-decoration="none" x="686.76806640625" y="694.25">+players: Vector.&lt;Player&gt;</text></g></g><g transform="translate(-10,-10) scale(1,1)"><g><path fill="none" stroke="none"/><text fill="#000000" stroke="none" font-family="Arial" font-size="13px" font-style="normal" font-weight="normal" text-decoration="none" x="686.76806640625" y="709.25">+snowballs: Vector.&lt;Snowball&gt;</text></g></g><g transform="translate(-10,-10) scale(1,1)"><g><path fill="none" stroke="none"/><text fill="#000000" stroke="none" font-family="Arial" font-size="13px" font-style="normal" font-weight="normal" text-decoration="none" x="686.76806640625" y="724.25">+monsters: Vector.&lt;Monster&gt;</text></g></g><g transform="translate(-10,-10) scale(1,1)"><g><path fill="none" stroke="none"/><text fill="#000000" stroke="none" font-family="Arial" font-size="13px" font-style="normal" font-weight="normal" text-decoration="none" x="686.76806640625" y="739.25">+obstacles: Vector.&lt;Obstacle&gt;</text></g></g><g transform="translate(-10,-10) scale(1,1)"><g><path fill="none" stroke="none"/><text fill="#000000" stroke="none" font-family="Arial" font-size="13px" font-style="normal" font-weight="normal" text-decoration="none" x="686.76806640625" y="754.25">+items: Vector.&lt;Item&gt;</text></g></g><g transform="translate(-10,-10) scale(1,1)"><path fill="none" stroke="#000000" d="M 454 747 L 487 747 L 667 747 L 681 742" stroke-miterlimit="10"/></g><g transform="translate(-10,-10) scale(1,1)"><path fill="#000000" stroke="none" d="M 464.16267485762415 742.790482243984 L 454 747 L 464.16267485762415 751.209517756016 L 476 747"/></g><g transform="translate(-10,-10) scale(1,1)"><path fill="none" stroke="#000000" d="M 464.16267485762415 742.790482243984 L 454 747 L 464.16267485762415 751.209517756016 L 476 747 L 464.16267485762415 742.790482243984" stroke-miterlimit="10"/></g><g transform="translate(-10,-10) scale(1,1)"><path fill="none" stroke="#000000" d="M 369 672 L 355 672 L 294 961" stroke-miterlimit="10"/></g><g transform="translate(-10,-10) scale(1,1)"><path fill="none" stroke="#000000" d="M 291.98005085667654 950.1870538030383 L 294 961 L 300.2175878435809 951.9257726826272" stroke-miterlimit="10"/></g><g transform="translate(-10,-10) scale(1,1)"><path fill="none" stroke="#000000" d="M 387 747 L 355 747 L 295 961" stroke-miterlimit="10"/></g><g transform="translate(-10,-10) scale(1,1)"><path fill="none" stroke="#000000" d="M 293.6903327509156 950.0782431954984 L 295 961 L 301.79677370600785 952.3510771081411" stroke-miterlimit="10"/></g><g transform="translate(-10,-10) scale(1,1)"><path fill="none" stroke="#000000" d="M 382 961 L 355 961 L 309 977" stroke-miterlimit="10"/></g><g transform="translate(-10,-10) scale(1,1)"><path fill="none" stroke="#000000" d="M 317.2157004450845 969.6854756684636 L 309 977 L 319.9815272529 977.6372277409331" stroke-miterlimit="10"/></g><g transform="translate(-10,-10) scale(1,1)"><path fill="none" stroke="#000000" d="M 385 1036 L 355 1036 L 309 1000" stroke-miterlimit="10"/></g><g transform="translate(-10,-10) scale(1,1)"><path fill="none" stroke="#000000" d="M 319.59751784462225 1002.9483241906061 L 309 1000 L 314.4087967033639 1009.5783567599917" stroke-miterlimit="10"/></g><g transform="translate(-10,-10) scale(1,1)"><path fill="none" stroke="#000000" d="M 401 1143 L 355 1089 L 303 1007" stroke-miterlimit="10"/></g><g transform="translate(-10,-10) scale(1,1)"><path fill="none" stroke="#000000" d="M 311.997513332402 1013.3280924324198 L 303 1007 L 304.8875656202185 1017.8368397620972" stroke-miterlimit="10"/></g><g transform="translate(-10,-10) scale(1,1)"><rect fill="#C0C0C0" stroke="none" x="1523.405517578125" y="535.75" width="96.40087890625" height="44" opacity="0.2"/></g><g transform="translate(-10,-10) scale(1,1)"><rect fill="#ffffff" stroke="none" x="1516.405517578125" y="528.75" width="96.40087890625" height="44"/></g><g transform="translate(-10,-10) scale(1,1)"><path fill="none" stroke="#000000" d="M 1516.405517578125 528.75 L 1612.806396484375 528.75 L 1612.806396484375 572.75 L 1516.405517578125 572.75 L 1516.405517578125 528.75 Z Z" stroke-miterlimit="10"/></g><g transform="translate(-10,-10) scale(1,1)"><path fill="none" stroke="#000000" d="M 1516.405517578125 553.75 L 1612.806396484375 553.75" stroke-miterlimit="10"/></g><g transform="translate(-10,-10) scale(1,1)"><path fill="none" stroke="#000000" d="M 1516.405517578125 563.75 L 1612.806396484375 563.75" stroke-miterlimit="10"/></g><g transform="translate(-10,-10) scale(1,1)"><g><path fill="none" stroke="none"/><text fill="#000000" stroke="none" font-family="Arial" font-size="13px" font-style="normal" font-weight="bold" text-decoration="none" x="1523.781005859375" y="548.25">UnitGenerator</text></g></g><g transform="translate(-10,-10) scale(1,1)"><path fill="none" stroke="#000000" d="M 787 651 L 888 128 L 1499 128 L 1561 528" stroke-miterlimit="10"/></g><g transform="translate(-10,-10) scale(1,1)"><path fill="#000000" stroke="none" d="M 784.7938258151783 640.2235072743389 L 787 651 L 793.0601303571563 641.8198681897113 L 791.1714921012035 629.3991052581242"/></g><g transform="translate(-10,-10) scale(1,1)"><path fill="none" stroke="#000000" d="M 784.7938258151783 640.2235072743389 L 787 651 L 793.0601303571563 641.8198681897113 L 791.1714921012035 629.3991052581242 L 784.7938258151783 640.2235072743389" stroke-miterlimit="10"/></g><g transform="translate(-10,-10) scale(1,1)"><rect fill="#C0C0C0" stroke="none" x="524.593994140625" y="27" width="117.34814453125" height="44" opacity="0.2"/></g><g transform="translate(-10,-10) scale(1,1)"><rect fill="#ffffff" stroke="none" x="517.593994140625" y="20" width="117.34814453125" height="44"/></g><g transform="translate(-10,-10) scale(1,1)"><path fill="none" stroke="#000000" d="M 517.593994140625 20 L 634.942138671875 20 L 634.942138671875 64 L 517.593994140625 64 L 517.593994140625 20 Z Z" stroke-miterlimit="10"/></g><g transform="translate(-10,-10) scale(1,1)"><path fill="none" stroke="#000000" d="M 517.593994140625 45 L 634.942138671875 45" stroke-miterlimit="10"/></g><g transform="translate(-10,-10) scale(1,1)"><path fill="none" stroke="#000000" d="M 517.593994140625 55 L 634.942138671875 55" stroke-miterlimit="10"/></g><g transform="translate(-10,-10) scale(1,1)"><g><path fill="none" stroke="none"/><text fill="#000000" stroke="none" font-family="Arial" font-size="13px" font-style="normal" font-weight="bold" text-decoration="none" x="526.048583984375" y="39.5">CollisionManager</text></g></g><g transform="translate(-10,-10) scale(1,1)"><path fill="none" stroke="#000000" d="M 766 651 L 667 43 L 636 43" stroke-miterlimit="10"/></g><g transform="translate(-10,-10) scale(1,1)"><path fill="#000000" stroke="none" d="M 760.2119329158188 641.6459485019047 L 766 651 L 768.5215317606842 640.2929052689415 L 762.4643276438671 629.2859717926387"/></g><g transform="translate(-10,-10) scale(1,1)"><path fill="none" stroke="#000000" d="M 760.2119329158188 641.6459485019047 L 766 651 L 768.5215317606842 640.2929052689415 L 762.4643276438671 629.2859717926387 L 760.2119329158188 641.6459485019047" stroke-miterlimit="10"/></g><g transform="translate(-10,-10) scale(1,1)"><path fill="#ffffff" stroke="none" d="M 501.76806640625 692 L 639.76806640625 692 L 649.76806640625 702 L 649.76806640625 715 L 501.76806640625 715 L 501.76806640625 692"/></g><g transform="translate(-10,-10) scale(1,1)"><path fill="none" stroke="#000000" d="M 501.76806640625 692 L 639.76806640625 692 L 649.76806640625 702 L 649.76806640625 715 L 501.76806640625 715 L 501.76806640625 692 L 501.76806640625 692" stroke-miterlimit="10"/></g><g transform="translate(-10,-10) scale(1,1)"><path fill="none" stroke="#000000" d="M 639.76806640625 692 L 639.76806640625 702 L 649.76806640625 702 L 639.76806640625 692" stroke-miterlimit="10"/></g><g transform="translate(-10,-10) scale(1,1)"><g><path fill="none" stroke="none"/><text fill="#000000" stroke="none" font-family="Arial" font-size="13px" font-style="normal" font-weight="normal" text-decoration="none" x="506.76806640625" y="710">游戏世界，最重要的类</text></g></g><g transform="translate(-10,-10) scale(1,1)"><path fill="none" stroke="#000000" d="M 681 706 L 667 705 L 652 705" stroke-miterlimit="10" stroke-dasharray="3"/></g><g transform="translate(-10,-10) scale(1,1)"><rect fill="#C0C0C0" stroke="none" x="544.26220703125" y="328" width="78.01171875" height="57" opacity="0.2"/></g><g transform="translate(-10,-10) scale(1,1)"><rect fill="#ffffff" stroke="none" x="537.26220703125" y="321" width="78.01171875" height="57"/></g><g transform="translate(-10,-10) scale(1,1)"><path fill="none" stroke="#000000" d="M 537.26220703125 321 L 615.27392578125 321 L 615.27392578125 378 L 537.26220703125 378 L 537.26220703125 321 Z Z" stroke-miterlimit="10"/></g><g transform="translate(-10,-10) scale(1,1)"><path fill="none" stroke="#000000" d="M 537.26220703125 346 L 615.27392578125 346" stroke-miterlimit="10"/></g><g transform="translate(-10,-10) scale(1,1)"><path fill="none" stroke="#000000" d="M 537.26220703125 369 L 615.27392578125 369" stroke-miterlimit="10"/></g><g transform="translate(-10,-10) scale(1,1)"><g><path fill="none" stroke="none"/><text fill="#000000" stroke="none" font-family="Arial" font-size="13px" font-style="normal" font-weight="bold" text-decoration="none" x="557.843994140625" y="340.5">Player</text></g></g><g transform="translate(-10,-10) scale(1,1)"><g><path fill="none" stroke="none"/><text fill="#000000" stroke="none" font-family="Arial" font-size="13px" font-style="normal" font-weight="normal" text-decoration="none" x="542.26220703125" y="363.5">+hero: Hero</text></g></g><g transform="translate(-10,-10) scale(1,1)"><path fill="none" stroke="#000000" d="M 681 660 L 667 653 L 585 379" stroke-miterlimit="10"/></g><g transform="translate(-10,-10) scale(1,1)"><path fill="none" stroke="#000000" d="M 591.9464986963408 387.5291357042631 L 585 379 L 583.8809066395413 389.9429260278308" stroke-miterlimit="10"/></g><g transform="translate(-10,-10) scale(1,1)"><rect fill="#C0C0C0" stroke="none" x="1360.6259765625" y="1165.75" width="66.05908203125" height="44" opacity="0.2"/></g><g transform="translate(-10,-10) scale(1,1)"><rect fill="#ffffff" stroke="none" x="1353.6259765625" y="1158.75" width="66.05908203125" height="44"/></g><g transform="translate(-10,-10) scale(1,1)"><path fill="none" stroke="#000000" d="M 1353.6259765625 1158.75 L 1419.68505859375 1158.75 L 1419.68505859375 1202.75 L 1353.6259765625 1202.75 L 1353.6259765625 1158.75 Z Z" stroke-miterlimit="10"/></g><g transform="translate(-10,-10) scale(1,1)"><path fill="none" stroke="#000000" d="M 1353.6259765625 1183.75 L 1419.68505859375 1183.75" stroke-miterlimit="10"/></g><g transform="translate(-10,-10) scale(1,1)"><path fill="none" stroke="#000000" d="M 1353.6259765625 1193.75 L 1419.68505859375 1193.75" stroke-miterlimit="10"/></g><g transform="translate(-10,-10) scale(1,1)"><g><path fill="none" stroke="none"/><text fill="#000000" stroke="none" font-family="Arial" font-size="13px" font-style="normal" font-weight="bold" text-decoration="none" x="1360.27783203125" y="1178.25">Snowball</text></g></g><g transform="translate(-10,-10) scale(1,1)"><rect fill="#C0C0C0" stroke="none" x="1363.8759765625" y="1030.25" width="59.55908203125" height="44" opacity="0.2"/></g><g transform="translate(-10,-10) scale(1,1)"><rect fill="#ffffff" stroke="none" x="1356.8759765625" y="1023.25" width="59.55908203125" height="44"/></g><g transform="translate(-10,-10) scale(1,1)"><path fill="none" stroke="#000000" d="M 1356.8759765625 1023.25 L 1416.43505859375 1023.25 L 1416.43505859375 1067.25 L 1356.8759765625 1067.25 L 1356.8759765625 1023.25 Z Z" stroke-miterlimit="10"/></g><g transform="translate(-10,-10) scale(1,1)"><path fill="none" stroke="#000000" d="M 1356.8759765625 1048.25 L 1416.43505859375 1048.25" stroke-miterlimit="10"/></g><g transform="translate(-10,-10) scale(1,1)"><path fill="none" stroke="#000000" d="M 1356.8759765625 1058.25 L 1416.43505859375 1058.25" stroke-miterlimit="10"/></g><g transform="translate(-10,-10) scale(1,1)"><g><path fill="none" stroke="none"/><text fill="#000000" stroke="none" font-family="Arial" font-size="13px" font-style="normal" font-weight="bold" text-decoration="none" x="1363.175537109375" y="1042.75">Monster</text></g></g><g transform="translate(-10,-10) scale(1,1)"><rect fill="#C0C0C0" stroke="none" x="1361.69873046875" y="747.25" width="63.91357421875" height="44" opacity="0.2"/></g><g transform="translate(-10,-10) scale(1,1)"><rect fill="#ffffff" stroke="none" x="1354.69873046875" y="740.25" width="63.91357421875" height="44"/></g><g transform="translate(-10,-10) scale(1,1)"><path fill="none" stroke="#000000" d="M 1354.69873046875 740.25 L 1418.6123046875 740.25 L 1418.6123046875 784.25 L 1354.69873046875 784.25 L 1354.69873046875 740.25 Z Z" stroke-miterlimit="10"/></g><g transform="translate(-10,-10) scale(1,1)"><path fill="none" stroke="#000000" d="M 1354.69873046875 765.25 L 1418.6123046875 765.25" stroke-miterlimit="10"/></g><g transform="translate(-10,-10) scale(1,1)"><path fill="none" stroke="#000000" d="M 1354.69873046875 775.25 L 1418.6123046875 775.25" stroke-miterlimit="10"/></g><g transform="translate(-10,-10) scale(1,1)"><g><path fill="none" stroke="none"/><text fill="#000000" stroke="none" font-family="Arial" font-size="13px" font-style="normal" font-weight="bold" text-decoration="none" x="1361.004638671875" y="759.75">Obstacle</text></g></g><g transform="translate(-10,-10) scale(1,1)"><rect fill="#C0C0C0" stroke="none" x="1375.79052734375" y="672.25" width="35.72998046875" height="44" opacity="0.2"/></g><g transform="translate(-10,-10) scale(1,1)"><rect fill="#ffffff" stroke="none" x="1368.79052734375" y="665.25" width="35.72998046875" height="44"/></g><g transform="translate(-10,-10) scale(1,1)"><path fill="none" stroke="#000000" d="M 1368.79052734375 665.25 L 1404.5205078125 665.25 L 1404.5205078125 709.25 L 1368.79052734375 709.25 L 1368.79052734375 665.25 Z Z" stroke-miterlimit="10"/></g><g transform="translate(-10,-10) scale(1,1)"><path fill="none" stroke="#000000" d="M 1368.79052734375 690.25 L 1404.5205078125 690.25" stroke-miterlimit="10"/></g><g transform="translate(-10,-10) scale(1,1)"><path fill="none" stroke="#000000" d="M 1368.79052734375 700.25 L 1404.5205078125 700.25" stroke-miterlimit="10"/></g><g transform="translate(-10,-10) scale(1,1)"><g><path fill="none" stroke="none"/><text fill="#000000" stroke="none" font-family="Arial" font-size="13px" font-style="normal" font-weight="bold" text-decoration="none" x="1374.01416015625" y="684.75">Item</text></g></g><g transform="translate(-10,-10) scale(1,1)"><rect fill="#C0C0C0" stroke="none" x="995.11376953125" y="1084.25" width="186.353515625" height="57" opacity="0.2"/></g><g transform="translate(-10,-10) scale(1,1)"><rect fill="#ffffff" stroke="none" x="988.11376953125" y="1077.25" width="186.353515625" height="57"/></g><g transform="translate(-10,-10) scale(1,1)"><path fill="none" stroke="#000000" d="M 988.11376953125 1077.25 L 1174.46728515625 1077.25 L 1174.46728515625 1134.25 L 988.11376953125 1134.25 L 988.11376953125 1077.25 Z Z" stroke-miterlimit="10"/></g><g transform="translate(-10,-10) scale(1,1)"><path fill="none" stroke="#000000" d="M 988.11376953125 1102.25 L 1174.46728515625 1102.25" stroke-miterlimit="10"/></g><g transform="translate(-10,-10) scale(1,1)"><path fill="none" stroke="#000000" d="M 988.11376953125 1125.25 L 1174.46728515625 1125.25" stroke-miterlimit="10"/></g><g transform="translate(-10,-10) scale(1,1)"><g><path fill="none" stroke="none"/><text fill="#000000" stroke="none" font-family="Arial" font-size="13px" font-style="normal" font-weight="bold" text-decoration="none" x="1069.7314453125" y="1096.75">Unit</text></g></g><g transform="translate(-10,-10) scale(1,1)"><g><path fill="none" stroke="none"/><text fill="#000000" stroke="none" font-family="Arial" font-size="13px" font-style="normal" font-weight="normal" text-decoration="none" x="993.11376953125" y="1119.75">+unitTransform: UnitTransform</text></g></g><g transform="translate(-10,-10) scale(1,1)"><rect fill="#C0C0C0" stroke="none" x="552.396728515625" y="1431" width="61.74267578125" height="44" opacity="0.2"/></g><g transform="translate(-10,-10) scale(1,1)"><rect fill="#ffffff" stroke="none" x="545.396728515625" y="1424" width="61.74267578125" height="44"/></g><g transform="translate(-10,-10) scale(1,1)"><path fill="none" stroke="#000000" d="M 545.396728515625 1424 L 607.139404296875 1424 L 607.139404296875 1468 L 545.396728515625 1468 L 545.396728515625 1424 Z Z" stroke-miterlimit="10"/></g><g transform="translate(-10,-10) scale(1,1)"><path fill="none" stroke="#000000" d="M 545.396728515625 1449 L 607.139404296875 1449" stroke-miterlimit="10"/></g><g transform="translate(-10,-10) scale(1,1)"><path fill="none" stroke="#000000" d="M 545.396728515625 1459 L 607.139404296875 1459" stroke-miterlimit="10"/></g><g transform="translate(-10,-10) scale(1,1)"><g><path fill="none" stroke="none"/><text fill="#000000" stroke="none" font-family="Arial" font-size="13px" font-style="normal" font-weight="bold" text-decoration="none" x="551.70263671875" y="1443.5">SpriteEx</text></g></g><g transform="translate(-10,-10) scale(1,1)"><path fill="none" stroke="#000000" d="M 819 770 L 888 867 L 1276 867 L 1372 1022" stroke-miterlimit="10"/></g><g transform="translate(-10,-10) scale(1,1)"><path fill="none" stroke="#000000" d="M 1363.0701962934083 1015.5767137879633 L 1372 1022 L 1370.2276244824375 1011.143726006371" stroke-miterlimit="10"/></g><g transform="translate(-10,-10) scale(1,1)"><g><path fill="none" stroke="none"/><text fill="#000000" stroke="none" font-family="Arial" font-size="13px" font-style="normal" font-weight="normal" text-decoration="none" x="839" y="789">+n</text></g></g><g transform="translate(-10,-10) scale(1,1)"><path fill="none" stroke="#000000" d="M 789 770 L 888 1234 L 1276 1234 L 1353 1196" stroke-miterlimit="10"/></g><g transform="translate(-10,-10) scale(1,1)"><path fill="none" stroke="#000000" d="M 1345.7495979680714 1204.2723437051059 L 1353 1196 L 1342.0237612267083 1196.7226218870808" stroke-miterlimit="10"/></g><g transform="translate(-10,-10) scale(1,1)"><g><path fill="none" stroke="none"/><text fill="#000000" stroke="none" font-family="Arial" font-size="13px" font-style="normal" font-weight="normal" text-decoration="none" x="1075" y="1226">+n</text></g></g><g transform="translate(-10,-10) scale(1,1)"><path fill="none" stroke="#000000" d="M 868 651 L 888 638 L 1276 638 L 1368 679" stroke-miterlimit="10"/></g><g transform="translate(-10,-10) scale(1,1)"><path fill="none" stroke="#000000" d="M 1357.0038718644046 678.7081678126589 L 1368 679 L 1360.4309197471616 671.018206709887" stroke-miterlimit="10"/></g><g transform="translate(-10,-10) scale(1,1)"><g><path fill="none" stroke="none"/><text fill="#000000" stroke="none" font-family="Arial" font-size="13px" font-style="normal" font-weight="normal" text-decoration="none" x="1075" y="630">+n</text></g></g><g transform="translate(-10,-10) scale(1,1)"><path fill="none" stroke="#000000" d="M 873 681 L 888 676 L 1276 676 L 1357 739" stroke-miterlimit="10"/></g><g transform="translate(-10,-10) scale(1,1)"><path fill="none" stroke="#000000" d="M 1346.3936761529294 736.0835133377539 L 1357 739 L 1351.5624639803902 729.4379289881613" stroke-miterlimit="10"/></g><g transform="translate(-10,-10) scale(1,1)"><g><path fill="none" stroke="none"/><text fill="#000000" stroke="none" font-family="Arial" font-size="13px" font-style="normal" font-weight="normal" text-decoration="none" x="1075" y="668">+n</text></g></g><g transform="translate(-10,-10) scale(1,1)"><path fill="none" stroke="#000000" d="M 587 320 L 667 98 L 888 98 L 1075 1076" stroke-miterlimit="10"/></g><g transform="translate(-10,-10) scale(1,1)"><path fill="none" stroke="#000000" d="M 536 349 L 487 350 L 424 724" stroke-miterlimit="10"/></g><g transform="translate(-10,-10) scale(1,1)"><path fill="none" stroke="#000000" d="M 421.53707515913123 713.279272355468 L 424 724 L 429.8391483601715 714.6777499267663" stroke-miterlimit="10"/></g><g transform="translate(-10,-10) scale(1,1)"><path fill="none" stroke="#000000" d="M 1372 785 L 1276 950 L 1117 1076" stroke-miterlimit="10"/></g><g transform="translate(-10,-10) scale(1,1)"><path fill="#FFFFFF" stroke="none" d="M 1127.701000661883 1056.7779141393453 L 1117 1076 L 1138.1588173941182 1069.9746828728803"/></g><g transform="translate(-10,-10) scale(1,1)"><path fill="none" stroke="#000000" d="M 1127.701000661883 1056.7779141393453 L 1117 1076 L 1138.1588173941182 1069.9746828728803 L 1127.701000661883 1056.7779141393453" stroke-miterlimit="10"/></g><g transform="translate(-10,-10) scale(1,1)"><path fill="none" stroke="#000000" d="M 1064 1135 L 888 1447 L 667 1447 L 608 1446" stroke-miterlimit="10"/></g><g transform="translate(-10,-10) scale(1,1)"><path fill="#FFFFFF" stroke="none" d="M 628.4651058994025 1437.9266214924455 L 608 1446 L 628.1797558489458 1454.7622744693908"/></g><g transform="translate(-10,-10) scale(1,1)"><path fill="none" stroke="#000000" d="M 628.4651058994025 1437.9266214924455 L 608 1446 L 628.1797558489458 1454.7622744693908 L 628.4651058994025 1437.9266214924455" stroke-miterlimit="10"/></g><g transform="translate(-10,-10) scale(1,1)"><path fill="none" stroke="#000000" d="M 1356 1066 L 1276 1121 L 1175 1113" stroke-miterlimit="10"/></g><g transform="translate(-10,-10) scale(1,1)"><path fill="#FFFFFF" stroke="none" d="M 1195.9266608218827 1106.2121530036486 L 1175 1113 L 1194.597116415521 1122.9976511339673"/></g><g transform="translate(-10,-10) scale(1,1)"><path fill="none" stroke="#000000" d="M 1195.9266608218827 1106.2121530036486 L 1175 1113 L 1194.597116415521 1122.9976511339673 L 1195.9266608218827 1106.2121530036486" stroke-miterlimit="10"/></g><g transform="translate(-10,-10) scale(1,1)"><path fill="none" stroke="#000000" d="M 1353 1171 L 1276 1151 L 1175 1127" stroke-miterlimit="10"/></g><g transform="translate(-10,-10) scale(1,1)"><path fill="#FFFFFF" stroke="none" d="M 1196.7210918865367 1123.5079852152908 L 1175 1127 L 1192.8283587020178 1139.8899040334747"/></g><g transform="translate(-10,-10) scale(1,1)"><path fill="none" stroke="#000000" d="M 1196.7210918865367 1123.5079852152908 L 1175 1127 L 1192.8283587020178 1139.8899040334747 L 1196.7210918865367 1123.5079852152908" stroke-miterlimit="10"/></g><g transform="translate(-10,-10) scale(1,1)"><path fill="none" stroke="#000000" d="M 1374 710 L 1276 897 L 1108 1076" stroke-miterlimit="10"/></g><g transform="translate(-10,-10) scale(1,1)"><path fill="#FFFFFF" stroke="none" d="M 1115.770812572114 1055.418103295151 L 1108 1076 L 1128.0483929947513 1066.9411955353917"/></g><g transform="translate(-10,-10) scale(1,1)"><path fill="none" stroke="#000000" d="M 1115.770812572114 1055.418103295151 L 1108 1076 L 1128.0483929947513 1066.9411955353917 L 1115.770812572114 1055.418103295151" stroke-miterlimit="10"/></g><g transform="translate(-10,-10) scale(1,1)"><rect fill="#C0C0C0" stroke="none" x="1337.669677734375" y="822.25" width="111.9716796875" height="177" opacity="0.2"/></g><g transform="translate(-10,-10) scale(1,1)"><rect fill="#ffffff" stroke="none" x="1330.669677734375" y="815.25" width="111.9716796875" height="177"/></g><g transform="translate(-10,-10) scale(1,1)"><path fill="none" stroke="#000000" d="M 1330.669677734375 815.25 L 1442.641357421875 815.25 L 1442.641357421875 992.25 L 1330.669677734375 992.25 L 1330.669677734375 815.25 Z Z" stroke-miterlimit="10"/></g><g transform="translate(-10,-10) scale(1,1)"><path fill="none" stroke="#000000" d="M 1330.669677734375 840.25 L 1442.641357421875 840.25" stroke-miterlimit="10"/></g><g transform="translate(-10,-10) scale(1,1)"><path fill="none" stroke="#000000" d="M 1330.669677734375 983.25 L 1442.641357421875 983.25" stroke-miterlimit="10"/></g><g transform="translate(-10,-10) scale(1,1)"><g><path fill="none" stroke="none"/><text fill="#000000" stroke="none" font-family="Arial" font-size="13px" font-style="normal" font-weight="bold" text-decoration="none" x="1345.4814453125" y="834.75">UnitTransform</text></g></g><g transform="translate(-10,-10) scale(1,1)"><g><path fill="none" stroke="none"/><text fill="#000000" stroke="none" font-family="Arial" font-size="13px" font-style="normal" font-weight="normal" text-decoration="none" x="1335.669677734375" y="857.75">+x: Number</text></g></g><g transform="translate(-10,-10) scale(1,1)"><g><path fill="none" stroke="none"/><text fill="#000000" stroke="none" font-family="Arial" font-size="13px" font-style="normal" font-weight="normal" text-decoration="none" x="1335.669677734375" y="872.75">+y: Number</text></g></g><g transform="translate(-10,-10) scale(1,1)"><g><path fill="none" stroke="none"/><text fill="#000000" stroke="none" font-family="Arial" font-size="13px" font-style="normal" font-weight="normal" text-decoration="none" x="1335.669677734375" y="887.75">+z: Number</text></g></g><g transform="translate(-10,-10) scale(1,1)"><g><path fill="none" stroke="none"/><text fill="#000000" stroke="none" font-family="Arial" font-size="13px" font-style="normal" font-weight="normal" text-decoration="none" x="1335.669677734375" y="902.75">+speed: Number</text></g></g><g transform="translate(-10,-10) scale(1,1)"><g><path fill="none" stroke="none"/><text fill="#000000" stroke="none" font-family="Arial" font-size="13px" font-style="normal" font-weight="normal" text-decoration="none" x="1335.669677734375" y="917.75">+vx: Number</text></g></g><g transform="translate(-10,-10) scale(1,1)"><g><path fill="none" stroke="none"/><text fill="#000000" stroke="none" font-family="Arial" font-size="13px" font-style="normal" font-weight="normal" text-decoration="none" x="1335.669677734375" y="932.75">+vy: Number</text></g></g><g transform="translate(-10,-10) scale(1,1)"><g><path fill="none" stroke="none"/><text fill="#000000" stroke="none" font-family="Arial" font-size="13px" font-style="normal" font-weight="normal" text-decoration="none" x="1335.669677734375" y="947.75">+vz: Number</text></g></g><g transform="translate(-10,-10) scale(1,1)"><g><path fill="none" stroke="none"/><text fill="#000000" stroke="none" font-family="Arial" font-size="13px" font-style="normal" font-weight="normal" text-decoration="none" x="1335.669677734375" y="962.75">+altitude: Number</text></g></g><g transform="translate(-10,-10) scale(1,1)"><g><path fill="none" stroke="none"/><text fill="#000000" stroke="none" font-family="Arial" font-size="13px" font-style="normal" font-weight="normal" text-decoration="none" x="1335.669677734375" y="977.75">+top: Number</text></g></g><g transform="translate(-10,-10) scale(1,1)"><path fill="#ffffff" stroke="none" d="M 902.79052734375 751.5 L 1248.79052734375 751.5 L 1258.79052734375 761.5 L 1258.79052734375 789.5 L 902.79052734375 789.5 L 902.79052734375 751.5"/></g><g transform="translate(-10,-10) scale(1,1)"><path fill="none" stroke="#000000" d="M 902.79052734375 751.5 L 1248.79052734375 751.5 L 1258.79052734375 761.5 L 1258.79052734375 789.5 L 902.79052734375 789.5 L 902.79052734375 751.5 L 902.79052734375 751.5" stroke-miterlimit="10"/></g><g transform="translate(-10,-10) scale(1,1)"><path fill="none" stroke="#000000" d="M 1248.79052734375 751.5 L 1248.79052734375 761.5 L 1258.79052734375 761.5 L 1248.79052734375 751.5" stroke-miterlimit="10"/></g><g transform="translate(-10,-10) scale(1,1)"><g><path fill="none" stroke="none"/></g></g><g transform="translate(-10,-10) scale(1,1)"><g><path fill="none" stroke="none"/><text fill="#000000" stroke="none" font-family="Arial" font-size="13px" font-style="normal" font-weight="normal" text-decoration="none" x="907.79052734375" y="771.5">对于 Unit</text><text fill="#000000" stroke="none" font-family="Arial" font-size="13px" font-style="normal" font-weight="normal" text-decoration="none" x="907.79052734375" y="784.5">至关重要的类，跟单位的位置、碰撞、速度的速度信息绑定</text></g></g><g transform="translate(-10,-10) scale(1,1)"><path fill="none" stroke="#000000" d="M 1330 836 L 1276 772 L 1261 772" stroke-miterlimit="10" stroke-dasharray="3"/></g><g transform="translate(-10,-10) scale(1,1)"><path fill="none" stroke="#000000" d="M 1557 574 L 1499 763 L 1420 762" stroke-miterlimit="10"/></g><g transform="translate(-10,-10) scale(1,1)"><path fill="none" stroke="#000000" d="M 1430.2151415354865 757.9194505994928 L 1420 762 L 1430.1085800025883 766.3378116984575" stroke-miterlimit="10"/></g><g transform="translate(-10,-10) scale(1,1)"><path fill="none" stroke="#000000" d="M 1561 574 L 1499 1046 L 1417 1045" stroke-miterlimit="10"/></g><g transform="translate(-10,-10) scale(1,1)"><path fill="none" stroke="#000000" d="M 1427.213251005801 1040.9147210753117 L 1417 1045 L 1427.110587474848 1049.3331306134767" stroke-miterlimit="10"/></g><g transform="translate(-10,-10) scale(1,1)"><path fill="none" stroke="#000000" d="M 1562 574 L 1499 1181 L 1421 1180" stroke-miterlimit="10"/></g><g transform="translate(-10,-10) scale(1,1)"><path fill="none" stroke="#000000" d="M 1431.2158035054035 1175.9211081481628 L 1421 1180 L 1431.1078760221008 1184.3394518457796" stroke-miterlimit="10"/></g><g transform="translate(-10,-10) scale(1,1)"><path fill="none" stroke="#000000" d="M 1553 574 L 1499 688 L 1406 687" stroke-miterlimit="10"/></g><g transform="translate(-10,-10) scale(1,1)"><path fill="none" stroke="#000000" d="M 1416.2073484181067 682.8999953327619 L 1406 687 L 1416.1168263874777 691.3185441812766" stroke-miterlimit="10"/></g><g transform="translate(-10,-10) scale(1,1)"><path fill="none" stroke="#000000" d="M 1066 1076 L 888 726 L 873 724" stroke-miterlimit="10"/></g><g transform="translate(-10,-10) scale(1,1)"><g><path fill="none" stroke="none"/><text fill="#000000" stroke="none" font-family="Arial" font-size="13px" font-style="normal" font-weight="normal" text-decoration="none" x="889" y="749">+n</text></g></g><g transform="translate(-10,-10) scale(1,1)"><rect fill="#C0C0C0" stroke="none" x="747.5029296875" y="1573.5" width="72.552734375" height="44" opacity="0.2"/></g><g transform="translate(-10,-10) scale(1,1)"><rect fill="#ffffff" stroke="none" x="740.5029296875" y="1566.5" width="72.552734375" height="44"/></g><g transform="translate(-10,-10) scale(1,1)"><path fill="none" stroke="#000000" d="M 740.5029296875 1566.5 L 813.0556640625 1566.5 L 813.0556640625 1610.5 L 740.5029296875 1610.5 L 740.5029296875 1566.5 Z Z" stroke-miterlimit="10"/></g><g transform="translate(-10,-10) scale(1,1)"><path fill="none" stroke="#000000" d="M 740.5029296875 1591.5 L 813.0556640625 1591.5" stroke-miterlimit="10"/></g><g transform="translate(-10,-10) scale(1,1)"><path fill="none" stroke="#000000" d="M 740.5029296875 1601.5 L 813.0556640625 1601.5" stroke-miterlimit="10"/></g><g transform="translate(-10,-10) scale(1,1)"><g><path fill="none" stroke="none"/><text fill="#000000" stroke="none" font-family="Arial" font-size="13px" font-style="normal" font-weight="bold" text-decoration="none" x="747.875244140625" y="1586">Animation</text></g></g><g transform="translate(-10,-10) scale(1,1)"><rect fill="#C0C0C0" stroke="none" x="1025.287353515625" y="1573.5" width="126.00634765625" height="44" opacity="0.2"/></g><g transform="translate(-10,-10) scale(1,1)"><rect fill="#ffffff" stroke="none" x="1018.287353515625" y="1566.5" width="126.00634765625" height="44"/></g><g transform="translate(-10,-10) scale(1,1)"><path fill="none" stroke="#000000" d="M 1018.287353515625 1566.5 L 1144.293701171875 1566.5 L 1144.293701171875 1610.5 L 1018.287353515625 1610.5 L 1018.287353515625 1566.5 Z Z" stroke-miterlimit="10"/></g><g transform="translate(-10,-10) scale(1,1)"><path fill="none" stroke="#000000" d="M 1018.287353515625 1591.5 L 1144.293701171875 1591.5" stroke-miterlimit="10"/></g><g transform="translate(-10,-10) scale(1,1)"><path fill="none" stroke="#000000" d="M 1018.287353515625 1601.5 L 1144.293701171875 1601.5" stroke-miterlimit="10"/></g><g transform="translate(-10,-10) scale(1,1)"><g><path fill="none" stroke="none"/><text fill="#000000" stroke="none" font-family="Arial" font-size="13px" font-style="normal" font-weight="bold" text-decoration="none" x="1027.4560546875" y="1586">OrientedAnimation</text></g></g><g transform="translate(-10,-10) scale(1,1)"><path fill="none" stroke="#000000" d="M 1017 1588 L 888 1589 L 814 1588" stroke-miterlimit="10"/></g><g transform="translate(-10,-10) scale(1,1)"><path fill="#FFFFFF" stroke="none" d="M 834.4372544754983 1579.8563749163088 L 814 1588 L 834.209733748579 1596.692908708341"/></g><g transform="translate(-10,-10) scale(1,1)"><path fill="none" stroke="#000000" d="M 834.4372544754983 1579.8563749163088 L 814 1588 L 834.209733748579 1596.692908708341 L 834.4372544754983 1579.8563749163088" stroke-miterlimit="10"/></g><g transform="translate(-10,-10) scale(1,1)"><rect fill="#C0C0C0" stroke="none" x="1297.79052734375" y="1536" width="191.72998046875" height="44" opacity="0.2"/></g><g transform="translate(-10,-10) scale(1,1)"><rect fill="#ffffff" stroke="none" x="1290.79052734375" y="1529" width="191.72998046875" height="44"/></g><g transform="translate(-10,-10) scale(1,1)"><path fill="none" stroke="#000000" d="M 1290.79052734375 1529 L 1482.5205078125 1529 L 1482.5205078125 1573 L 1290.79052734375 1573 L 1290.79052734375 1529 Z Z" stroke-miterlimit="10"/></g><g transform="translate(-10,-10) scale(1,1)"><path fill="none" stroke="#000000" d="M 1290.79052734375 1554 L 1482.5205078125 1554" stroke-miterlimit="10"/></g><g transform="translate(-10,-10) scale(1,1)"><path fill="none" stroke="#000000" d="M 1290.79052734375 1564 L 1482.5205078125 1564" stroke-miterlimit="10"/></g><g transform="translate(-10,-10) scale(1,1)"><g><path fill="none" stroke="none"/><text fill="#000000" stroke="none" font-family="Arial" font-size="13px" font-style="normal" font-weight="bold" text-decoration="none" x="1303.190185546875" y="1548.5">SnowballExplosionAnimation</text></g></g><g transform="translate(-10,-10) scale(1,1)"><path fill="none" stroke="#000000" d="M 1290 1552 L 1276 1552 L 1145 1576" stroke-miterlimit="10"/></g><g transform="translate(-10,-10) scale(1,1)"><path fill="#FFFFFF" stroke="none" d="M 1163.4754308773813 1564.0560285543247 L 1145 1576 L 1166.5097656622752 1580.618439255204"/></g><g transform="translate(-10,-10) scale(1,1)"><path fill="none" stroke="#000000" d="M 1163.4754308773813 1564.0560285543247 L 1145 1576 L 1166.5097656622752 1580.618439255204 L 1163.4754308773813 1564.0560285543247" stroke-miterlimit="10"/></g><g transform="translate(-10,-10) scale(1,1)"><rect fill="#C0C0C0" stroke="none" x="531.830322265625" y="1612" width="102.87548828125" height="44" opacity="0.2"/></g><g transform="translate(-10,-10) scale(1,1)"><rect fill="#ffffff" stroke="none" x="524.830322265625" y="1605" width="102.87548828125" height="44"/></g><g transform="translate(-10,-10) scale(1,1)"><path fill="none" stroke="#000000" d="M 524.830322265625 1605 L 627.705810546875 1605 L 627.705810546875 1649 L 524.830322265625 1649 L 524.830322265625 1605 Z Z" stroke-miterlimit="10"/></g><g transform="translate(-10,-10) scale(1,1)"><path fill="none" stroke="#000000" d="M 524.830322265625 1630 L 627.705810546875 1630" stroke-miterlimit="10"/></g><g transform="translate(-10,-10) scale(1,1)"><path fill="none" stroke="#000000" d="M 524.830322265625 1640 L 627.705810546875 1640" stroke-miterlimit="10"/></g><g transform="translate(-10,-10) scale(1,1)"><g><path fill="none" stroke="none"/><text fill="#000000" stroke="none" font-family="Arial" font-size="13px" font-style="normal" font-weight="bold" text-decoration="none" x="533.640380859375" y="1624.5">MultiAnimation</text></g></g><g transform="translate(-10,-10) scale(1,1)"><path fill="none" stroke="#000000" d="M 740 1598 L 667 1619 L 629 1622" stroke-miterlimit="10"/></g><g transform="translate(-10,-10) scale(1,1)"><path fill="#FFFFFF" stroke="none" d="M 731.3971701927379 1604.8550214665809 L 740 1598 L 729.0696485416926 1596.7641128700898 L 718.8574369512501 1604.0821071784076"/></g><g transform="translate(-10,-10) scale(1,1)"><path fill="none" stroke="#000000" d="M 731.3971701927379 1604.8550214665809 L 740 1598 L 729.0696485416926 1596.7641128700898 L 718.8574369512501 1604.0821071784076 L 731.3971701927379 1604.8550214665809" stroke-miterlimit="10"/></g><g transform="translate(-10,-10) scale(1,1)"><g><path fill="none" stroke="none"/><text fill="#000000" stroke="none" font-family="Arial" font-size="13px" font-style="normal" font-weight="normal" text-decoration="none" x="712" y="1626">+n</text></g></g><g transform="translate(-10,-10) scale(1,1)"><g><path fill="none" stroke="none"/><text fill="#000000" stroke="none" font-family="Arial" font-size="13px" font-style="normal" font-weight="normal" text-decoration="none" x="649" y="1641">+1</text></g></g><g transform="translate(-10,-10) scale(1,1)"><path fill="#C0C0C0" stroke="none" d="M 415.8935546875 1539 C 415.8935546875 1532.6487248 421.0422794875 1527.5 427.3935546875 1527.5 C 433.7448298875 1527.5 438.8935546875 1532.6487248 438.8935546875 1539 C 438.8935546875 1545.3512752 433.7448298875 1550.5 427.3935546875 1550.5 C 421.0422794875 1550.5 415.8935546875 1545.3512752 415.8935546875 1539 Z" opacity="0.2"/></g><g transform="translate(-10,-10) scale(1,1)"><path fill="#ffffff" stroke="none" d="M 408.8935546875 1532 C 408.8935546875 1525.6487248 414.0422794875 1520.5 420.3935546875 1520.5 C 426.7448298875 1520.5 431.8935546875 1525.6487248 431.8935546875 1532 C 431.8935546875 1538.3512752 426.7448298875 1543.5 420.3935546875 1543.5 C 414.0422794875 1543.5 408.8935546875 1538.3512752 408.8935546875 1532 Z"/></g><g transform="translate(-10,-10) scale(1,1)"><path fill="none" stroke="#000000" d="M 408.8935546875 1532 C 408.8935546875 1525.6487248 414.0422794875 1520.5 420.3935546875 1520.5 C 426.7448298875 1520.5 431.8935546875 1525.6487248 431.8935546875 1532 C 431.8935546875 1538.3512752 426.7448298875 1543.5 420.3935546875 1543.5 C 414.0422794875 1543.5 408.8935546875 1538.3512752 408.8935546875 1532 Z" stroke-miterlimit="10"/></g><g transform="translate(-10,-10) scale(1,1)"><g><path fill="none" stroke="none"/><text fill="#000000" stroke="none" font-family="Arial" font-size="13px" font-style="normal" font-weight="bold" text-decoration="none" x="397.627685546875" y="1563">IUpdate</text></g></g><g transform="translate(-10,-10) scale(1,1)"><path fill="none" stroke="#000000" d="M 740 1571 L 667 1537 L 487 1537 L 431.8935546875 1535.56806640625" stroke-miterlimit="10"/></g><g transform="translate(-10,-10) scale(1,1)"><path fill="none" stroke="#000000" d="M 524 1628 L 487 1628 L 426.05263157894734 1543.5" stroke-miterlimit="10"/></g><g transform="translate(-10,-10) scale(1,1)"><path fill="none" stroke="#000000" d="M 544 1446 L 487 1447 L 437 1520" stroke-miterlimit="10"/></g><g transform="translate(-10,-10) scale(1,1)"><path fill="none" stroke="#000000" d="M 439.26983761385077 1509.2367366841302 L 437 1520 L 446.2157940472941 1513.9942410905983" stroke-miterlimit="10"/></g><g transform="translate(-10,-10) scale(1,1)"><rect fill="#C0C0C0" stroke="none" x="1374.346435546875" y="1240.75" width="38.6181640625" height="44" opacity="0.2"/></g><g transform="translate(-10,-10) scale(1,1)"><rect fill="#ffffff" stroke="none" x="1367.346435546875" y="1233.75" width="38.6181640625" height="44"/></g><g transform="translate(-10,-10) scale(1,1)"><path fill="none" stroke="#000000" d="M 1367.346435546875 1233.75 L 1405.964599609375 1233.75 L 1405.964599609375 1277.75 L 1367.346435546875 1277.75 L 1367.346435546875 1233.75 Z Z" stroke-miterlimit="10"/></g><g transform="translate(-10,-10) scale(1,1)"><path fill="none" stroke="#000000" d="M 1367.346435546875 1258.75 L 1405.964599609375 1258.75" stroke-miterlimit="10"/></g><g transform="translate(-10,-10) scale(1,1)"><path fill="none" stroke="#000000" d="M 1367.346435546875 1268.75 L 1405.964599609375 1268.75" stroke-miterlimit="10"/></g><g transform="translate(-10,-10) scale(1,1)"><g><path fill="none" stroke="none"/><text fill="#000000" stroke="none" font-family="Arial" font-size="13px" font-style="normal" font-weight="bold" text-decoration="none" x="1372.56689453125" y="1253.25">Hero</text></g></g><g transform="translate(-10,-10) scale(1,1)"><path fill="none" stroke="#000000" d="M 1366 1246 L 1276 1204 L 1141 1135" stroke-miterlimit="10"/></g><g transform="translate(-10,-10) scale(1,1)"><path fill="#FFFFFF" stroke="none" d="M 1162.9299924885042 1136.7536902389372 L 1141 1135 L 1155.2668001399384 1151.7468926600445"/></g><g transform="translate(-10,-10) scale(1,1)"><path fill="none" stroke="#000000" d="M 1162.9299924885042 1136.7536902389372 L 1141 1135 L 1155.2668001399384 1151.7468926600445 L 1162.9299924885042 1136.7536902389372" stroke-miterlimit="10"/></g><g transform="translate(-10,-10) scale(1,1)"><path fill="none" stroke="#000000" d="M 1330 971 L 1276 1036 L 1162 1076" stroke-miterlimit="10"/></g><g transform="translate(-10,-10) scale(1,1)"><path fill="#000000" stroke="none" d="M 1170.1957802072818 1068.6631623437663 L 1162 1076 L 1172.9832194208711 1076.607364102496 L 1182.7591996069234 1068.7160703133602"/></g><g transform="translate(-10,-10) scale(1,1)"><path fill="none" stroke="#000000" d="M 1170.1957802072818 1068.6631623437663 L 1162 1076 L 1172.9832194208711 1076.607364102496 L 1182.7591996069234 1068.7160703133602 L 1170.1957802072818 1068.6631623437663" stroke-miterlimit="10"/></g><g transform="translate(-10,-10) scale(1,1)"><rect fill="#C0C0C0" stroke="none" x="739.197021484375" y="1270.75" width="89.16455078125" height="44" opacity="0.2"/></g><g transform="translate(-10,-10) scale(1,1)"><rect fill="#ffffff" stroke="none" x="732.197021484375" y="1263.75" width="89.16455078125" height="44"/></g><g transform="translate(-10,-10) scale(1,1)"><path fill="none" stroke="#000000" d="M 732.197021484375 1263.75 L 821.361572265625 1263.75 L 821.361572265625 1307.75 L 732.197021484375 1307.75 L 732.197021484375 1263.75 Z Z" stroke-miterlimit="10"/></g><g transform="translate(-10,-10) scale(1,1)"><path fill="none" stroke="#000000" d="M 732.197021484375 1288.75 L 821.361572265625 1288.75" stroke-miterlimit="10"/></g><g transform="translate(-10,-10) scale(1,1)"><path fill="none" stroke="#000000" d="M 732.197021484375 1298.75 L 821.361572265625 1298.75" stroke-miterlimit="10"/></g><g transform="translate(-10,-10) scale(1,1)"><g><path fill="none" stroke="none"/><text fill="#000000" stroke="none" font-family="Arial" font-size="13px" font-style="normal" font-weight="bold" text-decoration="none" x="739.201171875" y="1283.25">DropShadow</text></g></g><g transform="translate(-10,-10) scale(1,1)"><path fill="none" stroke="#000000" d="M 1049 1135 L 888 1286 L 822 1285" stroke-miterlimit="10"/></g><g transform="translate(-10,-10) scale(1,1)"><rect fill="#C0C0C0" stroke="none" x="96.635009765625" y="1338" width="48.72998046875" height="44" opacity="0.2"/></g><g transform="translate(-10,-10) scale(1,1)"><rect fill="#ffffff" stroke="none" x="89.635009765625" y="1331" width="48.72998046875" height="44"/></g><g transform="translate(-10,-10) scale(1,1)"><path fill="none" stroke="#000000" d="M 89.635009765625 1331 L 138.364990234375 1331 L 138.364990234375 1375 L 89.635009765625 1375 L 89.635009765625 1331 Z Z" stroke-miterlimit="10"/></g><g transform="translate(-10,-10) scale(1,1)"><path fill="none" stroke="#000000" d="M 89.635009765625 1356 L 138.364990234375 1356" stroke-miterlimit="10"/></g><g transform="translate(-10,-10) scale(1,1)"><path fill="none" stroke="#000000" d="M 89.635009765625 1366 L 138.364990234375 1366" stroke-miterlimit="10"/></g><g transform="translate(-10,-10) scale(1,1)"><g><path fill="none" stroke="none"/><text fill="#000000" stroke="none" font-family="Arial" font-size="13px" font-style="normal" font-weight="bold" text-decoration="none" x="94.845947265625" y="1350.5">Range</text></g></g><g transform="translate(-10,-10) scale(1,1)"><rect fill="#C0C0C0" stroke="none" x="273.447265625" y="1150.5" width="45.12451171875" height="44" opacity="0.2"/></g><g transform="translate(-10,-10) scale(1,1)"><rect fill="#ffffff" stroke="none" x="266.447265625" y="1143.5" width="45.12451171875" height="44"/></g><g transform="translate(-10,-10) scale(1,1)"><path fill="none" stroke="#000000" d="M 266.447265625 1143.5 L 311.57177734375 1143.5 L 311.57177734375 1187.5 L 266.447265625 1187.5 L 266.447265625 1143.5 Z Z" stroke-miterlimit="10"/></g><g transform="translate(-10,-10) scale(1,1)"><path fill="none" stroke="#000000" d="M 266.447265625 1168.5 L 311.57177734375 1168.5" stroke-miterlimit="10"/></g><g transform="translate(-10,-10) scale(1,1)"><path fill="none" stroke="#000000" d="M 266.447265625 1178.5 L 311.57177734375 1178.5" stroke-miterlimit="10"/></g><g transform="translate(-10,-10) scale(1,1)"><g><path fill="none" stroke="none"/><text fill="#000000" stroke="none" font-family="Arial" font-size="13px" font-style="normal" font-weight="bold" text-decoration="none" x="272.391357421875" y="1163">Slider</text></g></g><g transform="translate(-10,-10) scale(1,1)"><path fill="none" stroke="#000000" d="M 265 1165 L 224 1166 L 128 1330" stroke-miterlimit="10"/></g><g transform="translate(-10,-10) scale(1,1)"><path fill="#FFFFFF" stroke="none" d="M 131.0021944759293 1308.2058074632553 L 128 1330 L 145.53369340558783 1316.712050739153"/></g><g transform="translate(-10,-10) scale(1,1)"><path fill="none" stroke="#000000" d="M 131.0021944759293 1308.2058074632553 L 128 1330 L 145.53369340558783 1316.712050739153 L 131.0021944759293 1308.2058074632553" stroke-miterlimit="10"/></g><g transform="translate(-10,-10) scale(1,1)"><rect fill="#C0C0C0" stroke="none" x="1556.267333984375" y="1326" width="30.67724609375" height="44" opacity="0.2"/></g><g transform="translate(-10,-10) scale(1,1)"><rect fill="#ffffff" stroke="none" x="1549.267333984375" y="1319" width="30.67724609375" height="44"/></g><g transform="translate(-10,-10) scale(1,1)"><path fill="none" stroke="#000000" d="M 1549.267333984375 1319 L 1579.944580078125 1319 L 1579.944580078125 1363 L 1549.267333984375 1363 L 1549.267333984375 1319 Z Z" stroke-miterlimit="10"/></g><g transform="translate(-10,-10) scale(1,1)"><path fill="none" stroke="#000000" d="M 1549.267333984375 1344 L 1579.944580078125 1344" stroke-miterlimit="10"/></g><g transform="translate(-10,-10) scale(1,1)"><path fill="none" stroke="#000000" d="M 1549.267333984375 1354 L 1579.944580078125 1354" stroke-miterlimit="10"/></g><g transform="translate(-10,-10) scale(1,1)"><g><path fill="none" stroke="none"/><text fill="#000000" stroke="none" font-family="Arial" font-size="13px" font-style="normal" font-weight="bold" text-decoration="none" x="1554.490966796875" y="1338.5">Bar</text></g></g><g transform="translate(-10,-10) scale(1,1)"><path fill="none" stroke="#000000" d="M 1560 1364 L 1499 1721 L 224 1721 L 121 1376" stroke-miterlimit="10"/></g><g transform="translate(-10,-10) scale(1,1)"><path fill="#FFFFFF" stroke="none" d="M 134.88172996992253 1393.0674419009456 L 121 1376 L 118.74736149066668 1397.8843693019987"/></g><g transform="translate(-10,-10) scale(1,1)"><path fill="none" stroke="#000000" d="M 134.88172996992253 1393.0674419009456 L 121 1376 L 118.74736149066668 1397.8843693019987 L 134.88172996992253 1393.0674419009456" stroke-miterlimit="10"/></g><g transform="translate(-10,-10) scale(1,1)"><rect fill="#C0C0C0" stroke="none" x="1654.050048828125" y="1326" width="48.01904296875" height="44" opacity="0.2"/></g><g transform="translate(-10,-10) scale(1,1)"><rect fill="#ffffff" stroke="none" x="1647.050048828125" y="1319" width="48.01904296875" height="44"/></g><g transform="translate(-10,-10) scale(1,1)"><path fill="none" stroke="#000000" d="M 1647.050048828125 1319 L 1695.069091796875 1319 L 1695.069091796875 1363 L 1647.050048828125 1363 L 1647.050048828125 1319 Z Z" stroke-miterlimit="10"/></g><g transform="translate(-10,-10) scale(1,1)"><path fill="none" stroke="#000000" d="M 1647.050048828125 1344 L 1695.069091796875 1344" stroke-miterlimit="10"/></g><g transform="translate(-10,-10) scale(1,1)"><path fill="none" stroke="#000000" d="M 1647.050048828125 1354 L 1695.069091796875 1354" stroke-miterlimit="10"/></g><g transform="translate(-10,-10) scale(1,1)"><g><path fill="none" stroke="none"/><text fill="#000000" stroke="none" font-family="Arial" font-size="13px" font-style="normal" font-weight="bold" text-decoration="none" x="1652.273681640625" y="1338.5">SPBar</text></g></g><g transform="translate(-10,-10) scale(1,1)"><path fill="none" stroke="#000000" d="M 1646 1342 L 1632 1342 L 1581 1341" stroke-miterlimit="10"/></g><g transform="translate(-10,-10) scale(1,1)"><path fill="#FFFFFF" stroke="none" d="M 1601.4864910262672 1332.9810421231512 L 1581 1341 L 1601.1563962201599 1349.815877234622"/></g><g transform="translate(-10,-10) scale(1,1)"><path fill="none" stroke="#000000" d="M 1601.4864910262672 1332.9810421231512 L 1581 1341 L 1601.1563962201599 1349.815877234622 L 1601.4864910262672 1332.9810421231512" stroke-miterlimit="10"/></g><g transform="translate(-10,-10) scale(1,1)"><rect fill="#C0C0C0" stroke="none" x="1653.69140625" y="1401" width="48.736328125" height="44" opacity="0.2"/></g><g transform="translate(-10,-10) scale(1,1)"><rect fill="#ffffff" stroke="none" x="1646.69140625" y="1394" width="48.736328125" height="44"/></g><g transform="translate(-10,-10) scale(1,1)"><path fill="none" stroke="#000000" d="M 1646.69140625 1394 L 1695.427734375 1394 L 1695.427734375 1438 L 1646.69140625 1438 L 1646.69140625 1394 Z Z" stroke-miterlimit="10"/></g><g transform="translate(-10,-10) scale(1,1)"><path fill="none" stroke="#000000" d="M 1646.69140625 1419 L 1695.427734375 1419" stroke-miterlimit="10"/></g><g transform="translate(-10,-10) scale(1,1)"><path fill="none" stroke="#000000" d="M 1646.69140625 1429 L 1695.427734375 1429" stroke-miterlimit="10"/></g><g transform="translate(-10,-10) scale(1,1)"><g><path fill="none" stroke="none"/><text fill="#000000" stroke="none" font-family="Arial" font-size="13px" font-style="normal" font-weight="bold" text-decoration="none" x="1651.9150390625" y="1413.5">HPBar</text></g></g><g transform="translate(-10,-10) scale(1,1)"><path fill="none" stroke="#000000" d="M 1646 1417 L 1632 1417 L 1581 1360" stroke-miterlimit="10"/></g><g transform="translate(-10,-10) scale(1,1)"><path fill="#FFFFFF" stroke="none" d="M 1600.8270517906553 1369.533520718532 L 1581 1360 L 1588.2786256234529 1380.7610599207655"/></g><g transform="translate(-10,-10) scale(1,1)"><path fill="none" stroke="#000000" d="M 1600.8270517906553 1369.533520718532 L 1581 1360 L 1588.2786256234529 1380.7610599207655 L 1600.8270517906553 1369.533520718532" stroke-miterlimit="10"/></g><g transform="translate(-10,-10) scale(1,1)"><path fill="none" stroke="#000000" d="M 378 1166 L 355 1166 L 313 1165" stroke-miterlimit="10"/></g><g transform="translate(-10,-10) scale(1,1)"><path fill="none" stroke="#000000" d="M 323.2599937214146 1161.0335748038651 L 313 1165 L 323.0595972885998 1169.4502249820875" stroke-miterlimit="10"/></g><g transform="translate(-10,-10) scale(1,1)"><path fill="none" stroke="#000000" d="M 423 770 L 487 1339 L 1499 1339 L 1548 1341" stroke-miterlimit="10"/></g><g transform="translate(-10,-10) scale(1,1)"><path fill="none" stroke="#000000" d="M 1537.6741058396105 1344.7915576994733 L 1548 1341 L 1538.0174540568164 1336.3795263779318" stroke-miterlimit="10"/></g><g transform="translate(-10,-10) scale(1,1)"><path fill="none" stroke="#000000" d="M 1548 1320 L 1499 1256 L 1407 1255" stroke-miterlimit="10"/></g><g transform="translate(-10,-10) scale(1,1)"><rect fill="#C0C0C0" stroke="none" x="269.483154296875" y="1229.25" width="53.052734375" height="44" opacity="0.2"/></g><g transform="translate(-10,-10) scale(1,1)"><rect fill="#ffffff" stroke="none" x="262.483154296875" y="1222.25" width="53.052734375" height="44"/></g><g transform="translate(-10,-10) scale(1,1)"><path fill="none" stroke="#000000" d="M 262.483154296875 1222.25 L 315.535888671875 1222.25 L 315.535888671875 1266.25 L 262.483154296875 1266.25 L 262.483154296875 1222.25 Z Z" stroke-miterlimit="10"/></g><g transform="translate(-10,-10) scale(1,1)"><path fill="none" stroke="#000000" d="M 262.483154296875 1247.25 L 315.535888671875 1247.25" stroke-miterlimit="10"/></g><g transform="translate(-10,-10) scale(1,1)"><path fill="none" stroke="#000000" d="M 262.483154296875 1257.25 L 315.535888671875 1257.25" stroke-miterlimit="10"/></g><g transform="translate(-10,-10) scale(1,1)"><g><path fill="none" stroke="none"/><text fill="#000000" stroke="none" font-family="Arial" font-size="13px" font-style="normal" font-weight="bold" text-decoration="none" x="268.773193359375" y="1241.75">Setting</text></g></g><g transform="translate(-10,-10) scale(1,1)"><path fill="none" stroke="#000000" d="M 392 1189 L 355 1219 L 317 1234" stroke-miterlimit="10"/></g><g transform="translate(-10,-10) scale(1,1)"><path fill="none" stroke="#000000" d="M 766 770 L 667 1394 L 355 1394 L 299 1267" stroke-miterlimit="10"/></g><g transform="translate(-10,-10) scale(1,1)"><rect fill="#C0C0C0" stroke="none" x="1070.42236328125" y="307.25" width="35.736328125" height="44" opacity="0.2"/></g><g transform="translate(-10,-10) scale(1,1)"><rect fill="#ffffff" stroke="none" x="1063.42236328125" y="300.25" width="35.736328125" height="44"/></g><g transform="translate(-10,-10) scale(1,1)"><path fill="none" stroke="#000000" d="M 1063.42236328125 300.25 L 1099.15869140625 300.25 L 1099.15869140625 344.25 L 1063.42236328125 344.25 L 1063.42236328125 300.25 Z Z" stroke-miterlimit="10"/></g><g transform="translate(-10,-10) scale(1,1)"><path fill="none" stroke="#000000" d="M 1063.42236328125 325.25 L 1099.15869140625 325.25" stroke-miterlimit="10"/></g><g transform="translate(-10,-10) scale(1,1)"><path fill="none" stroke="#000000" d="M 1063.42236328125 335.25 L 1099.15869140625 335.25" stroke-miterlimit="10"/></g><g transform="translate(-10,-10) scale(1,1)"><g><path fill="none" stroke="none"/><text fill="#000000" stroke="none" font-family="Arial" font-size="13px" font-style="normal" font-weight="bold" text-decoration="none" x="1069.372802734375" y="319.75">Skill</text></g></g><g transform="translate(-10,-10) scale(1,1)"><path fill="none" stroke="#000000" d="M 1368 674 L 1276 608 L 1097 345" stroke-miterlimit="10"/></g><g transform="translate(-10,-10) scale(1,1)"><rect fill="#C0C0C0" stroke="none" x="744.243408203125" y="1498.5" width="79.07177734375" height="44" opacity="0.2"/></g><g transform="translate(-10,-10) scale(1,1)"><rect fill="#ffffff" stroke="none" x="737.243408203125" y="1491.5" width="79.07177734375" height="44"/></g><g transform="translate(-10,-10) scale(1,1)"><path fill="none" stroke="#000000" d="M 737.243408203125 1491.5 L 816.315185546875 1491.5 L 816.315185546875 1535.5 L 737.243408203125 1535.5 L 737.243408203125 1491.5 Z Z" stroke-miterlimit="10"/></g><g transform="translate(-10,-10) scale(1,1)"><path fill="none" stroke="#000000" d="M 737.243408203125 1516.5 L 816.315185546875 1516.5" stroke-miterlimit="10"/></g><g transform="translate(-10,-10) scale(1,1)"><path fill="none" stroke="#000000" d="M 737.243408203125 1526.5 L 816.315185546875 1526.5" stroke-miterlimit="10"/></g><g transform="translate(-10,-10) scale(1,1)"><g><path fill="none" stroke="none"/><text fill="#000000" stroke="none" font-family="Arial" font-size="13px" font-style="normal" font-weight="bold" text-decoration="none" x="743.901611328125" y="1511">StatusType</text></g></g><g transform="translate(-10,-10) scale(1,1)"><path fill="none" stroke="#000000" d="M 1067 1135 L 888 1514 L 817 1513" stroke-miterlimit="10"/></g><g transform="translate(-10,-10) scale(1,1)"><path fill="none" stroke="#000000" d="M 736 1533 L 667 1567 L 611 1604" stroke-miterlimit="10"/></g><g transform="translate(-10,-10) scale(1,1)"><rect fill="#C0C0C0" stroke="none" x="1520.5205078125" y="1678.5" width="102.1708984375" height="44" opacity="0.2"/></g><g transform="translate(-10,-10) scale(1,1)"><rect fill="#ffffff" stroke="none" x="1513.5205078125" y="1671.5" width="102.1708984375" height="44"/></g><g transform="translate(-10,-10) scale(1,1)"><path fill="none" stroke="#000000" d="M 1513.5205078125 1671.5 L 1615.69140625 1671.5 L 1615.69140625 1715.5 L 1513.5205078125 1715.5 L 1513.5205078125 1671.5 Z Z" stroke-miterlimit="10"/></g><g transform="translate(-10,-10) scale(1,1)"><path fill="none" stroke="#000000" d="M 1513.5205078125 1696.5 L 1615.69140625 1696.5" stroke-miterlimit="10"/></g><g transform="translate(-10,-10) scale(1,1)"><path fill="none" stroke="#000000" d="M 1513.5205078125 1706.5 L 1615.69140625 1706.5" stroke-miterlimit="10"/></g><g transform="translate(-10,-10) scale(1,1)"><g><path fill="none" stroke="none"/><text fill="#000000" stroke="none" font-family="Arial" font-size="13px" font-style="normal" font-weight="bold" text-decoration="none" x="1521.61328125" y="1691">HeroAnimation</text></g></g><g transform="translate(-10,-10) scale(1,1)"><path fill="none" stroke="#000000" d="M 1513 1682 L 1499 1679 L 667 1679 L 616 1650" stroke-miterlimit="10"/></g><g transform="translate(-10,-10) scale(1,1)"><path fill="#FFFFFF" stroke="none" d="M 637.830173652865 1652.7282811962398 L 616 1650 L 629.5070776895758 1667.3654499592658"/></g><g transform="translate(-10,-10) scale(1,1)"><path fill="none" stroke="#000000" d="M 637.830173652865 1652.7282811962398 L 616 1650 L 629.5070776895758 1667.3654499592658 L 637.830173652865 1652.7282811962398" stroke-miterlimit="10"/></g><g transform="translate(-10,-10) scale(1,1)"><rect fill="#C0C0C0" stroke="none" x="1325.955078125" y="1611" width="135.40087890625" height="44" opacity="0.2"/></g><g transform="translate(-10,-10) scale(1,1)"><rect fill="#ffffff" stroke="none" x="1318.955078125" y="1604" width="135.40087890625" height="44"/></g><g transform="translate(-10,-10) scale(1,1)"><path fill="none" stroke="#000000" d="M 1318.955078125 1604 L 1454.35595703125 1604 L 1454.35595703125 1648 L 1318.955078125 1648 L 1318.955078125 1604 Z Z" stroke-miterlimit="10"/></g><g transform="translate(-10,-10) scale(1,1)"><path fill="none" stroke="#000000" d="M 1318.955078125 1629 L 1454.35595703125 1629" stroke-miterlimit="10"/></g><g transform="translate(-10,-10) scale(1,1)"><path fill="none" stroke="#000000" d="M 1318.955078125 1639 L 1454.35595703125 1639" stroke-miterlimit="10"/></g><g transform="translate(-10,-10) scale(1,1)"><g><path fill="none" stroke="none"/><text fill="#000000" stroke="none" font-family="Arial" font-size="13px" font-style="normal" font-weight="bold" text-decoration="none" x="1327.768310546875" y="1623.5">HeroMoveAnimation</text></g></g><g transform="translate(-10,-10) scale(1,1)"><path fill="none" stroke="#000000" d="M 1318 1627 L 1276 1627 L 1145 1601" stroke-miterlimit="10"/></g><g transform="translate(-10,-10) scale(1,1)"><path fill="#FFFFFF" stroke="none" d="M 1166.5754612711246 1596.6988988691035 L 1145 1601 L 1163.297492748266 1613.2148171958138"/></g><g transform="translate(-10,-10) scale(1,1)"><path fill="none" stroke="#000000" d="M 1166.5754612711246 1596.6988988691035 L 1145 1601 L 1163.297492748266 1613.2148171958138 L 1166.5754612711246 1596.6988988691035" stroke-miterlimit="10"/></g><g transform="translate(-10,-10) scale(1,1)"><path fill="none" stroke="#000000" d="M 1542 1671 L 1499 1627 L 1455 1627" stroke-miterlimit="10"/></g><g transform="translate(-10,-10) scale(1,1)"><path fill="none" stroke="#000000" d="M 1465.162674857624 1622.7904822439841 L 1455 1627 L 1465.162674857624 1631.2095177560159" stroke-miterlimit="10"/></g><g transform="translate(-10,-10) scale(1,1)"><rect fill="#C0C0C0" stroke="none" x="1367.490966796875" y="165.25" width="52.3291015625" height="44" opacity="0.2"/></g><g transform="translate(-10,-10) scale(1,1)"><rect fill="#ffffff" stroke="none" x="1360.490966796875" y="158.25" width="52.3291015625" height="44"/></g><g transform="translate(-10,-10) scale(1,1)"><path fill="none" stroke="#000000" d="M 1360.490966796875 158.25 L 1412.820068359375 158.25 L 1412.820068359375 202.25 L 1360.490966796875 202.25 L 1360.490966796875 158.25 Z Z" stroke-miterlimit="10"/></g><g transform="translate(-10,-10) scale(1,1)"><path fill="none" stroke="#000000" d="M 1360.490966796875 183.25 L 1412.820068359375 183.25" stroke-miterlimit="10"/></g><g transform="translate(-10,-10) scale(1,1)"><path fill="none" stroke="#000000" d="M 1360.490966796875 193.25 L 1412.820068359375 193.25" stroke-miterlimit="10"/></g><g transform="translate(-10,-10) scale(1,1)"><g><path fill="none" stroke="none"/><text fill="#000000" stroke="none" font-family="Arial" font-size="13px" font-style="normal" font-weight="bold" text-decoration="none" x="1366.060546875" y="177.75">AddHP</text></g></g><g transform="translate(-10,-10) scale(1,1)"><path fill="none" stroke="#000000" d="M 1359 180 L 1276 181 L 1100 308" stroke-miterlimit="10"/></g><g transform="translate(-10,-10) scale(1,1)"><path fill="#FFFFFF" stroke="none" d="M 1111.5558435675368 289.2793568635418 L 1100 308 L 1121.4087090588991 302.93372163897317"/></g><g transform="translate(-10,-10) scale(1,1)"><path fill="none" stroke="#000000" d="M 1111.5558435675368 289.2793568635418 L 1100 308 L 1121.4087090588991 302.93372163897317 L 1111.5558435675368 289.2793568635418" stroke-miterlimit="10"/></g><g transform="translate(-10,-10) scale(1,1)"><rect fill="#C0C0C0" stroke="none" x="1360.984619140625" y="240.25" width="65.341796875" height="44" opacity="0.2"/></g><g transform="translate(-10,-10) scale(1,1)"><rect fill="#ffffff" stroke="none" x="1353.984619140625" y="233.25" width="65.341796875" height="44"/></g><g transform="translate(-10,-10) scale(1,1)"><path fill="none" stroke="#000000" d="M 1353.984619140625 233.25 L 1419.326416015625 233.25 L 1419.326416015625 277.25 L 1353.984619140625 277.25 L 1353.984619140625 233.25 Z Z" stroke-miterlimit="10"/></g><g transform="translate(-10,-10) scale(1,1)"><path fill="none" stroke="#000000" d="M 1353.984619140625 258.25 L 1419.326416015625 258.25" stroke-miterlimit="10"/></g><g transform="translate(-10,-10) scale(1,1)"><path fill="none" stroke="#000000" d="M 1353.984619140625 268.25 L 1419.326416015625 268.25" stroke-miterlimit="10"/></g><g transform="translate(-10,-10) scale(1,1)"><g><path fill="none" stroke="none"/><text fill="#000000" stroke="none" font-family="Arial" font-size="13px" font-style="normal" font-weight="bold" text-decoration="none" x="1359.551025390625" y="252.75">SpeedUp</text></g></g><g transform="translate(-10,-10) scale(1,1)"><path fill="none" stroke="#000000" d="M 1353 255 L 1276 256 L 1100 316" stroke-miterlimit="10"/></g><g transform="translate(-10,-10) scale(1,1)"><path fill="#FFFFFF" stroke="none" d="M 1116.521547326919 301.4728366869381 L 1100 316 L 1121.9547538406296 317.4102424604885"/></g><g transform="translate(-10,-10) scale(1,1)"><path fill="none" stroke="#000000" d="M 1116.521547326919 301.4728366869381 L 1100 316 L 1121.9547538406296 317.4102424604885 L 1116.521547326919 301.4728366869381" stroke-miterlimit="10"/></g><g transform="translate(-10,-10) scale(1,1)"><rect fill="#C0C0C0" stroke="none" x="1372.54052734375" y="315.25" width="42.22998046875" height="44" opacity="0.2"/></g><g transform="translate(-10,-10) scale(1,1)"><rect fill="#ffffff" stroke="none" x="1365.54052734375" y="308.25" width="42.22998046875" height="44"/></g><g transform="translate(-10,-10) scale(1,1)"><path fill="none" stroke="#000000" d="M 1365.54052734375 308.25 L 1407.7705078125 308.25 L 1407.7705078125 352.25 L 1365.54052734375 352.25 L 1365.54052734375 308.25 Z Z" stroke-miterlimit="10"/></g><g transform="translate(-10,-10) scale(1,1)"><path fill="none" stroke="#000000" d="M 1365.54052734375 333.25 L 1407.7705078125 333.25" stroke-miterlimit="10"/></g><g transform="translate(-10,-10) scale(1,1)"><path fill="none" stroke="#000000" d="M 1365.54052734375 343.25 L 1407.7705078125 343.25" stroke-miterlimit="10"/></g><g transform="translate(-10,-10) scale(1,1)"><g><path fill="none" stroke="none"/><text fill="#000000" stroke="none" font-family="Arial" font-size="13px" font-style="normal" font-weight="bold" text-decoration="none" x="1370.767333984375" y="327.75">Dizzy</text></g></g><g transform="translate(-10,-10) scale(1,1)"><path fill="none" stroke="#000000" d="M 1365 330 L 1276 331 L 1100 323" stroke-miterlimit="10"/></g><g transform="translate(-10,-10) scale(1,1)"><path fill="#FFFFFF" stroke="none" d="M 1120.686673644098 315.51257497248974 L 1100 323 L 1119.922096224513 332.3332782033562"/></g><g transform="translate(-10,-10) scale(1,1)"><path fill="none" stroke="#000000" d="M 1120.686673644098 315.51257497248974 L 1100 323 L 1119.922096224513 332.3332782033562 L 1120.686673644098 315.51257497248974" stroke-miterlimit="10"/></g><g transform="translate(-10,-10) scale(1,1)"><rect fill="#C0C0C0" stroke="none" x="1374.714599609375" y="390.25" width="37.8818359375" height="44" opacity="0.2"/></g><g transform="translate(-10,-10) scale(1,1)"><rect fill="#ffffff" stroke="none" x="1367.714599609375" y="383.25" width="37.8818359375" height="44"/></g><g transform="translate(-10,-10) scale(1,1)"><path fill="none" stroke="#000000" d="M 1367.714599609375 383.25 L 1405.596435546875 383.25 L 1405.596435546875 427.25 L 1367.714599609375 427.25 L 1367.714599609375 383.25 Z Z" stroke-miterlimit="10"/></g><g transform="translate(-10,-10) scale(1,1)"><path fill="none" stroke="#000000" d="M 1367.714599609375 408.25 L 1405.596435546875 408.25" stroke-miterlimit="10"/></g><g transform="translate(-10,-10) scale(1,1)"><path fill="none" stroke="#000000" d="M 1367.714599609375 418.25 L 1405.596435546875 418.25" stroke-miterlimit="10"/></g><g transform="translate(-10,-10) scale(1,1)"><g><path fill="none" stroke="none"/><text fill="#000000" stroke="none" font-family="Arial" font-size="13px" font-style="normal" font-weight="bold" text-decoration="none" x="1373.2841796875" y="402.75">Stop</text></g></g><g transform="translate(-10,-10) scale(1,1)"><path fill="none" stroke="#000000" d="M 1367 405 L 1276 406 L 1100 330" stroke-miterlimit="10"/></g><g transform="translate(-10,-10) scale(1,1)"><path fill="#FFFFFF" stroke="none" d="M 1121.9975472955027 330.32850111433083 L 1100 330 L 1115.3223294965512 345.7869002276925"/></g><g transform="translate(-10,-10) scale(1,1)"><path fill="none" stroke="#000000" d="M 1121.9975472955027 330.32850111433083 L 1100 330 L 1115.3223294965512 345.7869002276925 L 1121.9975472955027 330.32850111433083" stroke-miterlimit="10"/></g><g transform="translate(-10,-10) scale(1,1)"><rect fill="#C0C0C0" stroke="none" x="1359.188232421875" y="465.25" width="68.9345703125" height="44" opacity="0.2"/></g><g transform="translate(-10,-10) scale(1,1)"><rect fill="#ffffff" stroke="none" x="1352.188232421875" y="458.25" width="68.9345703125" height="44"/></g><g transform="translate(-10,-10) scale(1,1)"><path fill="none" stroke="#000000" d="M 1352.188232421875 458.25 L 1421.122802734375 458.25 L 1421.122802734375 502.25 L 1352.188232421875 502.25 L 1352.188232421875 458.25 Z Z" stroke-miterlimit="10"/></g><g transform="translate(-10,-10) scale(1,1)"><path fill="none" stroke="#000000" d="M 1352.188232421875 483.25 L 1421.122802734375 483.25" stroke-miterlimit="10"/></g><g transform="translate(-10,-10) scale(1,1)"><path fill="none" stroke="#000000" d="M 1352.188232421875 493.25 L 1421.122802734375 493.25" stroke-miterlimit="10"/></g><g transform="translate(-10,-10) scale(1,1)"><g><path fill="none" stroke="none"/><text fill="#000000" stroke="none" font-family="Arial" font-size="13px" font-style="normal" font-weight="bold" text-decoration="none" x="1358.83056640625" y="477.75">AddSnow</text></g></g><g transform="translate(-10,-10) scale(1,1)"><path fill="none" stroke="#000000" d="M 1351 480 L 1276 481 L 1100 338" stroke-miterlimit="10"/></g><g transform="translate(-10,-10) scale(1,1)"><path fill="#FFFFFF" stroke="none" d="M 1121.083770175559 344.28288430453745 L 1100 338 L 1110.4658067669675 357.3511469612655"/></g><g transform="translate(-10,-10) scale(1,1)"><path fill="none" stroke="#000000" d="M 1121.083770175559 344.28288430453745 L 1100 338 L 1110.4658067669675 357.3511469612655 L 1121.083770175559 344.28288430453745" stroke-miterlimit="10"/></g><g transform="translate(-10,-10) scale(1,1)"><rect fill="#C0C0C0" stroke="none" x="1341.83056640625" y="540.25" width="103.64990234375" height="44" opacity="0.2"/></g><g transform="translate(-10,-10) scale(1,1)"><rect fill="#ffffff" stroke="none" x="1334.83056640625" y="533.25" width="103.64990234375" height="44"/></g><g transform="translate(-10,-10) scale(1,1)"><path fill="none" stroke="#000000" d="M 1334.83056640625 533.25 L 1438.48046875 533.25 L 1438.48046875 577.25 L 1334.83056640625 577.25 L 1334.83056640625 533.25 Z Z" stroke-miterlimit="10"/></g><g transform="translate(-10,-10) scale(1,1)"><path fill="none" stroke="#000000" d="M 1334.83056640625 558.25 L 1438.48046875 558.25" stroke-miterlimit="10"/></g><g transform="translate(-10,-10) scale(1,1)"><path fill="none" stroke="#000000" d="M 1334.83056640625 568.25 L 1438.48046875 568.25" stroke-miterlimit="10"/></g><g transform="translate(-10,-10) scale(1,1)"><g><path fill="none" stroke="none"/><text fill="#000000" stroke="none" font-family="Arial" font-size="13px" font-style="normal" font-weight="bold" text-decoration="none" x="1342.221923828125" y="552.75">MoveBackward</text></g></g><g transform="translate(-10,-10) scale(1,1)"><path fill="none" stroke="#000000" d="M 1334 555 L 1276 556 L 1100 345" stroke-miterlimit="10"/></g><g transform="translate(-10,-10) scale(1,1)"><path fill="#FFFFFF" stroke="none" d="M 1119.4844164305398 355.21555267038025 L 1100 345 L 1106.554076418703 366.0010495522915"/></g><g transform="translate(-10,-10) scale(1,1)"><path fill="none" stroke="#000000" d="M 1119.4844164305398 355.21555267038025 L 1100 345 L 1106.554076418703 366.0010495522915 L 1119.4844164305398 355.21555267038025" stroke-miterlimit="10"/></g></g></svg>